<?xml version="1.0" standalone="no"?>
<!DOCTYPE svg PUBLIC "-//W3C//DTD SVG 20010904//EN"
 "http://www.w3.org/TR/2001/REC-SVG-20010904/DTD/svg10.dtd">
<svg version="1.0" xmlns="http://www.w3.org/2000/svg"
 width="1280.000000pt" height="1280.000000pt" viewBox="0 0 1280.000000 1280.000000"
 preserveAspectRatio="xMidYMid meet">
<metadata>
Created by potrace 1.15, written by Peter Selinger 2001-2017
</metadata>
<g transform="translate(0.000000,1280.000000) scale(0.100000,-0.100000)"
fill="#000000" stroke="none">
<path d="M2235 10603 c75 -34 101 -51 147 -101 61 -65 69 -83 144 -303 70
-209 140 -365 209 -469 91 -136 235 -239 385 -274 132 -31 222 -16 390 66 58
29 115 51 128 50 12 -2 86 -28 164 -58 433 -168 789 -259 1213 -310 193 -23
579 -23 730 0 394 61 744 210 1385 591 543 323 714 418 896 496 269 115 433
153 629 146 141 -5 214 -21 314 -67 188 -88 344 -239 403 -391 30 -77 36 -223
13 -325 -27 -125 -138 -340 -234 -452 l-20 -23 -92 66 c-256 184 -521 315
-634 315 -59 0 -34 28 -451 -498 -182 -229 -335 -416 -340 -415 -5 1 -65 23
-134 48 -220 80 -442 135 -701 172 -177 25 -643 25 -819 0 -630 -89 -1155
-312 -1640 -696 -126 -99 -396 -369 -501 -501 -581 -725 -827 -1671 -674
-2586 170 -1015 809 -1887 1730 -2365 137 -72 335 -155 497 -210 54 -18 96
-34 94 -36 -2 -2 -91 -13 -197 -23 -349 -35 -541 -64 -646 -96 -55 -17 -62
-25 -40 -41 53 -43 520 -106 1092 -148 297 -22 950 -25 1300 -6 456 24 1056
95 1173 137 85 32 33 65 -138 89 -25 3 -52 8 -60 10 -25 7 -325 43 -465 55
-71 7 -150 15 -175 19 l-45 7 133 48 c275 98 514 212 712 339 829 531 1359
1362 1497 2347 22 158 25 631 5 790 -64 510 -230 971 -504 1397 l-59 91 78
100 c43 55 195 253 338 440 177 231 269 344 290 353 28 13 29 17 26 69 -3 63
-27 112 -101 211 -57 77 -210 234 -327 336 l-81 71 62 84 c107 143 179 275
221 404 91 279 28 530 -187 741 -91 90 -141 128 -251 191 -233 133 -531 168
-817 94 -301 -77 -534 -191 -1177 -574 -671 -398 -951 -529 -1298 -604 -104
-23 -151 -27 -352 -31 -321 -7 -539 14 -863 83 -258 56 -665 190 -830 274
l-37 19 -12 133 c-16 166 -30 219 -82 297 -64 97 -148 155 -258 181 -52 12
-94 12 -337 -6 -146 -11 -214 12 -361 118 -110 80 -251 126 -433 143 l-65 6
40 -18z"/>
</g>
</svg>
